<svg height="500pt" viewBox="-48 0 500 500.40043" width="500pt" xmlns="http://www.w3.org/2000/svg" xmlns:xlink="http://www.w3.org/1999/xlink"><linearGradient id="a"><stop offset="0" stop-color="#00efd1"/><stop offset="1" stop-color="#00acea"/></linearGradient><linearGradient id="b" gradientUnits="userSpaceOnUse" x1="130.686478" x2="130.686478" xlink:href="#a" y1="9.71143" y2="495.75943"/><linearGradient id="c" gradientUnits="userSpaceOnUse" x1="202.439478" x2="202.439478" xlink:href="#a" y1="9.71143" y2="495.75943"/><linearGradient id="d" gradientUnits="userSpaceOnUse" x1="279.200478" x2="279.200478" xlink:href="#a" y1="9.71143" y2="495.75943"/><path d="m130.652344 157h.039062v-6.777344l.070313 7.113282c43.496093-.050782 78.730469-35.324219 78.738281-78.820313-.019531-20.875-8.339844-40.882813-23.132812-55.613281-14.792969-14.730469-34.835938-22.9726565-55.710938-22.902344h-.035156c-43.355469.0078125-78.492188 35.164062-78.484375 78.515625.007812 43.355469 35.164062 78.492187 78.515625 78.484375zm-45.820313-124.089844c12.140625-12.1875 28.65625-18.996094 45.859375-18.910156h.027344c35.625-.007812 64.507812 28.859375 64.519531 64.484375.007813 35.621094-28.863281 64.507813-64.484375 64.515625h-.097656c-26.148438.132812-49.78125-15.542969-59.828125-39.679688-10.046875-24.140624-4.515625-51.957031 14.003906-70.410156zm0 0" fill="url(#b)"/><path d="m279.964844 250.742188c-7.617188 0-15.214844.695312-22.703125 2.078124-13.8125-48.285156-57.867188-81.628906-108.085938-81.820312h-36.808593c-62.09375.175781-112.3007818 50.636719-112.167969 112.730469v114.808593c0 3.863282 2.660156 7.460938 6.523437 7.460938h152.199219c14.011719 55.441406 63.851563 94.316406 121.039063 94.402344 68.765624 0 124.714843-56.0625 124.714843-124.832032 0-68.765624-55.945312-124.828124-124.710937-124.828124zm-265.765625 141.257812v-108.226562c-.15625-54.382813 43.796875-98.601563 98.179687-98.773438h36.785156c43.746094.191406 82.175782 29.089844 94.5 71.066406-52.503906 16.160156-88.351562 64.648438-88.410156 119.585938.023438 5.464844.367188 10.921875 1.03125 16.347656zm265.765625 94.167969c-61.148438 0-110.714844-49.566407-110.714844-110.710938 0-61.148437 49.570312-110.714843 110.714844-110.714843 61.144531 0 110.714844 49.570312 110.710937 110.714843-.066406 61.117188-49.59375 110.644531-110.710937 110.710938zm0 0" fill="url(#c)"/><path d="m315.757812 293.902344c-15.25-.015625-29.234374 8.476562-36.257812 22.011718-7.023438 13.535157-5.917969 29.855469 2.871094 42.320313l-78.523438 78.519531c-2.734375 2.734375-2.734375 7.167969 0 9.902344 2.734375 2.730469 7.167969 2.730469 9.902344 0l6.097656-6.101562 17.675782 17.53125c2.730468 2.707031 7.132812 2.707031 9.863281 0l25.222656-25.039063c1.320313-1.308594 2.066406-3.09375 2.066406-4.953125.003907-1.863281-.730469-3.648438-2.046875-4.964844l-17.675781-17.675781 37.3125-37.316406c14.410156 10.132812 33.691406 9.886719 47.832031-.613281 14.144532-10.5 19.960938-28.882813 14.429688-45.605469-5.527344-16.722657-21.15625-28.019531-38.769532-28.015625zm-57.996093 134.148437-15.308594 15.195313-12.699219-12.601563 15.300782-15.300781zm58-66.464843c-14.828125.003906-26.847657-12.015626-26.851563-26.839844-.003906-14.828125 12.015625-26.847656 26.84375-26.851563 14.828125 0 26.847656 12.019531 26.847656 26.847657-.019531 14.816406-12.027343 26.824218-26.84375 26.84375zm0 0" fill="url(#d)"/></svg>